<svg width="48" height="48" viewBox="0 0 48 48" fill="none" xmlns="http://www.w3.org/2000/svg">
<path d="M24 4C29.434 4 30.112 4.02 32.244 4.12C34.374 4.22 35.824 4.554 37.1 5.05C38.42 5.558 39.532 6.246 40.644 7.356C41.661 8.35579 42.4479 9.56518 42.95 10.9C43.444 12.174 43.78 13.626 43.88 15.756C43.974 17.888 44 18.566 44 24C44 29.434 43.98 30.112 43.88 32.244C43.78 34.374 43.444 35.824 42.95 37.1C42.4494 38.4356 41.6622 39.6452 40.644 40.644C39.6439 41.6606 38.4346 42.4475 37.1 42.95C35.826 43.444 34.374 43.78 32.244 43.88C30.112 43.974 29.434 44 24 44C18.566 44 17.888 43.98 15.756 43.88C13.626 43.78 12.176 43.444 10.9 42.95C9.56465 42.4489 8.35505 41.6619 7.356 40.644C6.33881 39.6444 5.55186 38.4349 5.05 37.1C4.554 35.826 4.22 34.374 4.12 32.244C4.026 30.112 4 29.434 4 24C4 18.566 4.02 17.888 4.12 15.756C4.22 13.624 4.554 12.176 5.05 10.9C5.55047 9.56436 6.33761 8.35464 7.356 7.356C8.35534 6.33846 9.56486 5.55146 10.9 5.05C12.176 4.554 13.624 4.22 15.756 4.12C17.888 4.026 18.566 4 24 4ZM24 14C21.3478 14 18.8043 15.0536 16.9289 16.9289C15.0536 18.8043 14 21.3478 14 24C14 26.6522 15.0536 29.1957 16.9289 31.0711C18.8043 32.9464 21.3478 34 24 34C26.6522 34 29.1957 32.9464 31.0711 31.0711C32.9464 29.1957 34 26.6522 34 24C34 21.3478 32.9464 18.8043 31.0711 16.9289C29.1957 15.0536 26.6522 14 24 14ZM37 13.5C37 12.837 36.7366 12.2011 36.2678 11.7322C35.7989 11.2634 35.163 11 34.5 11C33.837 11 33.2011 11.2634 32.7322 11.7322C32.2634 12.2011 32 12.837 32 13.5C32 14.163 32.2634 14.7989 32.7322 15.2678C33.2011 15.7366 33.837 16 34.5 16C35.163 16 35.7989 15.7366 36.2678 15.2678C36.7366 14.7989 37 14.163 37 13.5ZM24 18C25.5913 18 27.1174 18.6321 28.2426 19.7574C29.3679 20.8826 30 22.4087 30 24C30 25.5913 29.3679 27.1174 28.2426 28.2426C27.1174 29.3679 25.5913 30 24 30C22.4087 30 20.8826 29.3679 19.7574 28.2426C18.6321 27.1174 18 25.5913 18 24C18 22.4087 18.6321 20.8826 19.7574 19.7574C20.8826 18.6321 22.4087 18 24 18Z" fill="white"/>
</svg>
