<svg width="48" height="48" viewBox="0 0 48 48" fill="none" xmlns="http://www.w3.org/2000/svg">
<path d="M44.324 11.3121C42.7971 11.9875 41.1779 12.431 39.52 12.6281C41.2675 11.583 42.5754 9.93813 43.2 8.0001C41.56 8.9761 39.762 9.6601 37.888 10.0301C36.6292 8.68326 34.9607 7.79002 33.1419 7.48927C31.3231 7.18851 29.4559 7.49708 27.8305 8.367C26.2052 9.23693 24.9128 10.6195 24.1542 12.2997C23.3957 13.9799 23.2135 15.8637 23.636 17.6581C20.3102 17.4914 17.0566 16.6271 14.0866 15.1214C11.1165 13.6157 8.49624 11.5022 6.39598 8.9181C5.65256 10.195 5.26189 11.6466 5.26398 13.1241C5.26398 16.0241 6.73998 18.5861 8.98398 20.0861C7.656 20.0443 6.35725 19.6857 5.19598 19.0401V19.1441C5.19638 21.0755 5.86472 22.9473 7.08768 24.4422C8.31064 25.9371 10.0129 26.963 11.906 27.3461C10.6732 27.6802 9.3806 27.7294 8.12598 27.4901C8.65972 29.1526 9.7 30.6065 11.1012 31.6483C12.5023 32.6901 14.1942 33.2677 15.94 33.3001C14.2049 34.6627 12.2183 35.6701 10.0937 36.2644C7.96915 36.8588 5.74824 37.0286 3.55798 36.7641C7.38138 39.223 11.8322 40.5283 16.378 40.5241C31.764 40.5241 40.178 27.7781 40.178 16.7241C40.178 16.3641 40.168 16.0001 40.152 15.6441C41.7897 14.4604 43.2032 12.9941 44.326 11.3141L44.324 11.3121Z" fill="white"/>
</svg>
