<svg width="19" height="17" viewBox="0 0 19 17" fill="none" xmlns="http://www.w3.org/2000/svg">
<path d="M9.84807 0.355844C10.0708 0.127997 10.3728 0 10.6876 0C11.0025 0 11.3045 0.127997 11.5272 0.355844L18.6523 7.64807C18.8749 7.87599 19 8.18506 19 8.50734C19 8.82961 18.8749 9.13869 18.6523 9.3666L11.5272 16.6588C11.3032 16.8802 11.0033 17.0027 10.6919 17C10.3806 16.9972 10.0827 16.8694 9.86253 16.644C9.64236 16.4187 9.51747 16.1139 9.51476 15.7952C9.51206 15.4765 9.63175 15.1695 9.84807 14.9403L14.9461 9.72271H1.18752C0.872567 9.72271 0.570518 9.59466 0.347816 9.36673C0.125113 9.13881 0 8.82967 0 8.50734C0 8.185 0.125113 7.87587 0.347816 7.64794C0.570518 7.42001 0.872567 7.29197 1.18752 7.29197H14.9461L9.84807 2.07438C9.62544 1.84646 9.50038 1.53738 9.50038 1.21511C9.50038 0.892838 9.62544 0.58376 9.84807 0.355844Z" fill="#0D0D0D"/>
</svg>
